<svg width="600" height="300" viewBox="0 0 600 300" fill="none" xmlns="http://www.w3.org/2000/svg">
<rect x="51" y="69" width="17" height="17" fill="#FF9A00"/>
<rect x="51" y="141" width="17" height="17" fill="#FF9A00"/>
<rect x="51" y="213" width="17" height="17" fill="#FF9A00"/>
<rect x="34" y="86" width="17" height="17" fill="#FF9A00"/>
<rect x="106" y="158" width="17" height="17" fill="#FF9A00"/>
<rect x="142" y="176" width="17" height="17" fill="#FFFF00"/>
<rect x="382" y="157" width="17" height="17" fill="#FFFF00"/>
<rect x="268" y="176" width="17" height="17" fill="#FFFF00"/>
<rect x="233" y="176" width="17" height="17" fill="#FFFF00"/>
<rect x="488" y="176" width="17" height="17" fill="#FFFF00"/>
<rect x="349" y="176" width="17" height="17" fill="#FFFF00"/>
<rect x="196" y="176" width="17" height="17" fill="#FFFF00"/>
<rect x="436" y="119" width="17" height="17" fill="#FFFF00"/>
<rect x="453" y="100" width="17" height="17" fill="#FFFF00"/>
<rect x="142" y="119" width="17" height="17" fill="#FFFF00"/>
<rect x="233" y="119" width="17" height="17" fill="#FFFF00"/>
<rect x="488" y="119" width="17" height="17" fill="#FFFF00"/>
<rect x="34" y="105" width="17" height="17" fill="#FF9A00"/>
<rect x="106" y="177" width="17" height="17" fill="#FF9A00"/>
<rect x="142" y="195" width="17" height="17" fill="#FFFF00"/>
<rect x="382" y="176" width="17" height="17" fill="#FFFF00"/>
<rect x="268" y="195" width="17" height="17" fill="#FFFF00"/>
<rect x="233" y="195" width="17" height="17" fill="#FFFF00"/>
<rect x="488" y="195" width="17" height="17" fill="#FFFF00"/>
<rect x="349" y="195" width="17" height="17" fill="#FFFF00"/>
<rect x="213" y="195" width="17" height="17" fill="#FFFF00"/>
<rect x="419" y="176" width="17" height="17" fill="#FFFF00"/>
<rect x="330" y="119" width="17" height="17" fill="#FFFF00"/>
<rect x="549" y="100" width="17" height="17" fill="#FFFF00"/>
<rect x="549" y="214" width="17" height="17" fill="#FFFF00"/>
<rect x="549" y="157" width="17" height="17" fill="#FFFF00"/>
<rect x="330" y="176" width="17" height="17" fill="#FFFF00"/>
<rect x="142" y="138" width="17" height="17" fill="#FFFF00"/>
<rect x="382" y="119" width="17" height="17" fill="#FFFF00"/>
<rect x="382" y="100" width="17" height="17" fill="#FFFF00"/>
<rect x="268" y="138" width="17" height="17" fill="#FFFF00"/>
<rect x="233" y="138" width="17" height="17" fill="#FFFF00"/>
<rect x="488" y="138" width="17" height="17" fill="#FFFF00"/>
<rect x="349" y="138" width="17" height="17" fill="#FFFF00"/>
<rect x="162" y="138" width="17" height="17" fill="#FFFF00"/>
<rect x="401" y="157" width="17" height="17" fill="#FFFF00"/>
<rect x="288" y="119" width="17" height="17" fill="#FFFF00"/>
<rect x="507" y="100" width="17" height="17" fill="#FFFF00"/>
<rect x="507" y="214" width="17" height="17" fill="#FFFF00"/>
<rect x="507" y="157" width="17" height="17" fill="#FFFF00"/>
<rect x="288" y="176" width="17" height="17" fill="#FFFF00"/>
<rect x="34" y="124" width="17" height="17" fill="#FF9A00"/>
<rect x="106" y="196" width="17" height="17" fill="#FF9A00"/>
<rect x="142" y="214" width="17" height="17" fill="#FFFF00"/>
<rect x="382" y="195" width="17" height="17" fill="#FFFF00"/>
<rect x="382" y="214" width="17" height="17" fill="#FFFF00"/>
<rect x="268" y="214" width="17" height="17" fill="#FFFF00"/>
<rect x="233" y="214" width="17" height="17" fill="#FFFF00"/>
<rect x="436" y="195" width="17" height="17" fill="#FFFF00"/>
<rect x="453" y="214" width="17" height="17" fill="#FFFF00"/>
<rect x="349" y="214" width="17" height="17" fill="#FFFF00"/>
<rect x="142" y="157" width="17" height="17" fill="#FFFF00"/>
<rect x="382" y="138" width="17" height="17" fill="#FFFF00"/>
<rect x="268" y="157" width="17" height="17" fill="#FFFF00"/>
<rect x="233" y="157" width="17" height="17" fill="#FFFF00"/>
<rect x="488" y="157" width="17" height="17" fill="#FFFF00"/>
<rect x="349" y="157" width="17" height="17" fill="#FFFF00"/>
<rect x="179" y="157" width="17" height="17" fill="#FFFF00"/>
<rect x="419" y="138" width="17" height="17" fill="#FFFF00"/>
<rect x="309" y="119" width="17" height="17" fill="#FFFF00"/>
<rect x="528" y="100" width="17" height="17" fill="#FFFF00"/>
<rect x="528" y="214" width="17" height="17" fill="#FFFF00"/>
<rect x="528" y="157" width="17" height="17" fill="#FFFF00"/>
<rect x="309" y="176" width="17" height="17" fill="#FFFF00"/>
<rect x="70" y="69" width="17" height="17" fill="#FF9A00"/>
<rect x="70" y="141" width="17" height="17" fill="#FF9A00"/>
<rect x="70" y="213" width="17" height="17" fill="#FF9A00"/>
<rect x="89" y="69" width="17" height="17" fill="#FF9A00"/>
<rect x="89" y="141" width="17" height="17" fill="#FF9A00"/>
<rect x="89" y="213" width="17" height="17" fill="#FF9A00"/>
</svg>
